/* XPM */
static char * north_texture_xpm[] = {
"80 80 3 1",    /* 8x8ピクセル, 2色, 各ピクセル1文字 */
". c #FFA500",
"# c #FFFFFF", 
"N c #FF0000", 
"################################################################################",
"#......##......##......##......##......##......##......##......##......##......#",
"#......##......##......##......##......##......##......##......##......##......#",
"################################################################################",
"...##......##......##......##......##......##......##......##......##......##...",
"...##......##......##......##......##......##......##......##......##......##...",
"################################################################################",
"#......##......##......##......##......##......##......##......##......##......#",
"#......##......##......##......##......##......##......##......##......##......#",
"################################################################################",
"...##......##......##......##......##......##......##......##......##......##...",
"...##......##......##......##......##......##......##......##......##......##...",
"################################################################################",
"#......##......##......##......##......##......##......##......##......##......#",
"#......##......##......##......##......##......##......##......##......##......#",
"################################################################################",
"...##.....NNNNNNNNN##......##......##......##......##......##..NNNNNNN.....##...",
"...##.....NNNNNNNNNN#......##......##......##......##......##..NNNNNNN.....##...",
"##########NNNNNNNNNNN##########################################NNNNNNN##########",
"#......##.NNNNNNNNNNNN.##......##......##......##......##......NNNNNNN.##......#",
"#......##.NNNNNNNNNNNNN##......##......##......##......##......NNNNNNN.##......#",
"##########NNNNNNNNNNNNNN#######################################NNNNNNN##########",
"...##.....NNNNNNN.NNNNNNN..##......##......##......##......##..NNNNNNN.....##...",
"...##.....NNNNNNN..NNNNNNN.##......##......##......##......##..NNNNNNN.....##...",
"##########NNNNNNN###NNNNNNN####################################NNNNNNN##########",
"#......##.NNNNNNN....NNNNNNN...##......##......##......##......NNNNNNN.##......#",
"#......##.NNNNNNN.....NNNNNNN..##......##......##......##......NNNNNNN.##......#",
"##########NNNNNNN######NNNNNNN#################################NNNNNNN##########",
"...##.....NNNNNNN..##...NNNNNNN....##......##......##......##..NNNNNNN.....##...",
"...##.....NNNNNNN..##....NNNNNNN...##......##......##......##..NNNNNNN.....##...",
"##########NNNNNNN#########NNNNNNN##############################NNNNNNN##########",
"#......##.NNNNNNN......##..NNNNNNN.....##......##......##......NNNNNNN.##......#",
"#......##.NNNNNNN......##...NNNNNNN....##......##......##......NNNNNNN.##......#",
"##########NNNNNNN############NNNNNNN###########################NNNNNNN##########",
"...##.....NNNNNNN..##......##.NNNNNNN......##......##......##..NNNNNNN.....##...",
"...##.....NNNNNNN..##......##..NNNNNNN.....##......##......##..NNNNNNN.....##...",
"##########NNNNNNN###############NNNNNNN########################NNNNNNN##########",
"#......##.NNNNNNN......##......##NNNNNNN#......##......##......NNNNNNN.##......#",
"#......##.NNNNNNN......##......##.NNNNNNN......##......##......NNNNNNN.##......#",
"##########NNNNNNN##################NNNNNNN#####################NNNNNNN##########",
"...##.....NNNNNNN..##......##......#NNNNNNN##......##......##..NNNNNNN.....##...",
"...##.....NNNNNNN..##......##......##NNNNNNN#......##......##..NNNNNNN.....##...",
"##########NNNNNNN#####################NNNNNNN##################NNNNNNN##########",
"#......##.NNNNNNN......##......##......NNNNNNN.##......##......NNNNNNN.##......#",
"#......##.NNNNNNN......##......##.......NNNNNNN##......##......NNNNNNN.##......#",
"##########NNNNNNN########################NNNNNNN###############NNNNNNN##########",
"...##.....NNNNNNN..##......##......##.....NNNNNNN..##......##..NNNNNNN.....##...",
"...##.....NNNNNNN..##......##......##......NNNNNNN.##......##..NNNNNNN.....##...",
"##########NNNNNNN###########################NNNNNNN############NNNNNNN##########",
"#......##.NNNNNNN......##......##......##....NNNNNNN...##......NNNNNNN.##......#",
"#......##.NNNNNNN......##......##......##.....NNNNNNN..##......NNNNNNN.##......#",
"##########NNNNNNN##############################NNNNNNN#########NNNNNNN##########",
"...##.....NNNNNNN..##......##......##......##...NNNNNNN....##..NNNNNNN.....##...",
"...##.....NNNNNNN..##......##......##......##....NNNNNNN...##..NNNNNNN.....##...",
"##########NNNNNNN#################################NNNNNNN######NNNNNNN##########",
"#......##.NNNNNNN......##......##......##......##..NNNNNNN.....NNNNNNN.##......#",
"#......##.NNNNNNN......##......##......##......##...NNNNNNN....NNNNNNN.##......#",
"##########NNNNNNN####################################NNNNNNN###NNNNNNN##########",
"...##.....NNNNNNN..##......##......##......##......##.NNNNNNN..NNNNNNN.....##...",
"...##.....NNNNNNN..##......##......##......##......##..NNNNNNN.NNNNNNN.....##...",
"##########NNNNNNN#######################################NNNNNNNNNNNNNN##########",
"#......##.NNNNNNN......##......##......##......##......##NNNNNNNNNNNNN.##......#",
"#......##.NNNNNNN......##......##......##......##......##.NNNNNNNNNNNN.##......#",
"##########NNNNNNN##########################################NNNNNNNNNNN##########",
"...##.....NNNNNNN..##......##......##......##......##......#NNNNNNNNNN.....##...",
"...##.....NNNNNNN..##......##......##......##......##......##NNNNNNNNN.....##...",
"################################################################################",
"#......##......##......##......##......##......##......##......##......##......#",
"#......##......##......##......##......##......##......##......##......##......#",
"################################################################################",
"...##......##......##......##......##......##......##......##......##......##...",
"...##......##......##......##......##......##......##......##......##......##...",
"################################################################################",
"#......##......##......##......##......##......##......##......##......##......#",
"#......##......##......##......##......##......##......##......##......##......#",
"################################################################################",
"...##......##......##......##......##......##......##......##......##......##...",
"...##......##......##......##......##......##......##......##......##......##...",
"################################################################################",
"#......##......##......##......##......##......##......##......##......##......#",
"#......##......##......##......##......##......##......##......##......##......#",
"################################################################################",
};