/* XPM */
static char * north_texture_xpm[] = {
"80 80 3 1",    /* 8x8ピクセル, 2色, 各ピクセル1文字 */
". c #FFA500",
"# c #FFFFFF", 
"E c #00FF00", 
"################################################################################",
"#......##......##......##......##......##......##......##......##......##......#",
"#......##......##......##......##......##......##......##......##......##......#",
"################################################################################",
"...##......##......##......##......##......##......##......##......##......##...",
"...##......##......##......##......##......##......##......##......##......##...",
"################################################################################",
"#......##......##......##......##......##......##......##......##......##......#",
"#......##......##......##......##......##......##......##......##......##......#",
"################################################################################",
"...##......##......##......##......##......##......##......##......##......##...",
"...##......##......##......##......##......##......##......##......##......##...",
"################################################################################",
"#......##......##......##......##......##......##......##......##......##......#",
"#......##......##......##......##......##......##......##......##......##......#",
"################################################################################",
"...##......##......##......##......##......##......##......##......##......##...",
"...##.....EEEEEEEEEEEEEEEEEEEEEEEEEEEEEEEEEEEEEEEEEEEEEEEEEEEEEEEEEEEE.....##...",
"##########EEEEEEEEEEEEEEEEEEEEEEEEEEEEEEEEEEEEEEEEEEEEEEEEEEEEEEEEEEEE##########",
"#......##.EEEEEEEEEEEEEEEEEEEEEEEEEEEEEEEEEEEEEEEEEEEEEEEEEEEEEEEEEEEE.##......#",
"#......##.EEEEEEEEEEEEEEEEEEEEEEEEEEEEEEEEEEEEEEEEEEEEEEEEEEEEEEEEEEEE.##......#",
"##########EEEEE#################################################################",
"...##.....EEEEE....##......##......##......##......##......##......##......##...",
"...##.....EEEEE....##......##......##......##......##......##......##......##...",
"##########EEEEE#################################################################",
"#......##.EEEEE##......##......##......##......##......##......##......##......#",
"#......##.EEEEE##......##......##......##......##......##......##......##......#",
"##########EEEEE#################################################################",
"...##.....EEEEE....##......##......##......##......##......##......##......##...",
"...##.....EEEEE....##......##......##......##......##......##......##......##...",
"##########EEEEE#################################################################",
"#......##.EEEEE##......##......##......##......##......##......##......##......#",
"#......##.EEEEE##......##......##......##......##......##......##......##......#",
"##########EEEEE#################################################################",
"...##.....EEEEE....##......##......##......##......##......##......##......##...",
"...##.....EEEEE....##......##......##......##......##......##......##......##...",
"##########EEEEE#################################################################",
"#......##.EEEEE##......##......##......##......##......##......##......##......#",
"#......##.EEEEE##......##......##......##......##......##......##......##......#",
"##########EEEEEEEEEEEEEEEEEEEEEEEEEEEEEEEEEEEEEEEEEEEEEEEEEEEEEEEEEEEE##########",
"...##.....EEEEEEEEEEEEEEEEEEEEEEEEEEEEEEEEEEEEEEEEEEEEEEEEEEEEEEEEEEEE.....##...",
"...##.....EEEEEEEEEEEEEEEEEEEEEEEEEEEEEEEEEEEEEEEEEEEEEEEEEEEEEEEEEEEE.....##...",
"##########EEEEEEEEEEEEEEEEEEEEEEEEEEEEEEEEEEEEEEEEEEEEEEEEEEEEEEEEEEEE##########",
"#......##.EEEEE##......##......##......##......##......##......##......##......#",
"#......##.EEEEE##......##......##......##......##......##......##......##......#",
"##########EEEEE#################################################################",
"...##.....EEEEE....##......##......##......##......##......##......##......##...",
"...##.....EEEEE....##......##......##......##......##......##......##......##...",
"##########EEEEE#################################################################",
"#......##.EEEEE##......##......##......##......##......##......##......##......#",
"#......##.EEEEE##......##......##......##......##......##......##......##......#",
"##########EEEEE#################################################################",
"...##.....EEEEE....##......##......##......##......##......##......##......##...",
"...##.....EEEEE....##......##......##......##......##......##......##......##...",
"##########EEEEE#################################################################",
"#......##.EEEEE##......##......##......##......##......##......##......##......#",
"#......##.EEEEE##......##......##......##......##......##......##......##......#",
"##########EEEEE#################################################################",
"...##.....EEEEE....##......##......##......##......##......##......##......##...",
"...##.....EEEEE....##......##......##......##......##......##......##......##...",
"##########EEEEE#################################################################",
"#......##.EEEEE##......##......##......##......##......##......##......##......#",
"#......##.EEEEEEEEEEEEEEEEEEEEEEEEEEEEEEEEEEEEEEEEEEEEEEEEEEEEEEEEEEEE.##......#",
"##########EEEÈEEEEEEEEEEEEEEEEEEEEEEEEEEEEEEEEEEEEEEEEEEEEEEEEEEEEEEEE##########",
"...##.....EEEÈEEEEEEEEEEEEEEEEEEEEEEEEEEEEEEEEEEEEEEEEEEEEEEEEEEEEEEEE.....##...",
"...##.....EEEÈEEEEEEEEEEEEEEEEEEEEEEEEEEEEEEEEEEEEEEEEEEEEEEEEEEEEEEEE.....##...",
"################################################################################",
"#......##......##......##......##......##......##......##......##......##......#",
"#......##......##......##......##......##......##......##......##......##......#",
"################################################################################",
"...##......##......##......##......##......##......##......##......##......##...",
"...##......##......##......##......##......##......##......##......##......##...",
"################################################################################",
"#......##......##......##......##......##......##......##......##......##......#",
"#......##......##......##......##......##......##......##......##......##......#",
"################################################################################",
"...##......##......##......##......##......##......##......##......##......##...",
"...##......##......##......##......##......##......##......##......##......##...",
"################################################################################",
"#......##......##......##......##......##......##......##......##......##......#",
"#......##......##......##......##......##......##......##......##......##......#",
"################################################################################",
};