/* XPM */
static char * north_texture_xpm[] = {
"80 80 3 1",    /* 8x8ピクセル, 2色, 各ピクセル1文字 */
". c #FFA500",
"# c #FFFFFF", 
"W c #0000FF", 
"################################################################################",
"#......##......##......##......##......##......##......##......##......##......#",
"#......##......##......##......##......##......##......##......##......##......#",
"################################################################################",
"...##......##......##......##......##......##......##......##......##......##...",
"...##......##......##......##......##......##......##......##......##......##...",
"################################################################################",
"#......##......##......##......##......##......##......##......##......##......#",
"#......##......##......##......##......##......##......##......##......##......#",
"################################################################################",
"...##......##......##......##......##......##......##......##......##......##...",
"...##......##......##......##......##......##......##......##......##......##...",
"################################################################################",
"#......##......##......##......##......##......##......##......##......##......#",
"#......##......##......##......##......##......##......##......##......##......#",
"################################################################################",
"...##.....WWWW.....##......##......#WWWWWWWW#......##......##.....WWWW.....##...",
"...##.....WWWW.....##......##......#WWWWWWWW#......##......##.....WWWW.....##...",
"##########WWWW######################WWWWWWWW######################WWWW##########",
"#......##.WWWW##.......##......##...WWWWWWWW...##......##......##.WWWW.##......#",
"#......##..WWWW#.......##......##..WWWW##WWWW..##......##......##WWWW..##......#",
"###########WWWW####################WWWW##WWWW####################WWWW###########",
"...##......WWWW....##......##......WWWW..WWWW......##......##....WWWW......##...",
"...##......WWWW....##......##......WWWW..WWWW......##......##....WWWW......##...",
"############WWWW##################WWWW####WWWW##################WWWW############",
"#......##...WWWW#......##......##.WWWW.##.WWWW.##......##......#WWWW...##......#",
"#......##...WWWW#......##......##.WWWW.##.WWWW.##......##......#WWWW...##......#",
"############WWWW##################WWWW####WWWW##################WWWW############",
"...##......##WWWW..##......##....WWWW......WWWW....##......##..WWWW##......##...",
"...##......##WWWW..##......##....WWWW......WWWW....##......##..WWWW##......##...",
"#############WWWW################WWWW######WWWW################WWWW#############",
"#......##....WWWW......##......##WWWW..##..WWWW##......##......WWWW....##......#",
"#......##.....WWWW.....##......#WWWW...##...WWWW#......##.....WWWW.....##......#",
"##############WWWW##############WWWW########WWWW##############WWWW##############",
"...##......##.WWWW.##......##...WWWW#......#WWWW...##......##.WWWW.##......##...",
"...##......##.WWWW.##......##...WWWW#......#WWWW...##......##.WWWW.##......##...",
"###############WWWW############WWWW##########WWWW############WWWW###############",
"#......##......WWWW....##......WWWW....##....WWWW......##....WWWW......##......#",
"#......##......WWWW....##......WWWW....##....WWWW......##....WWWW......##......#",
"###############WWWW############WWWW##########WWWW############WWWW###############",
"...##......##...WWWW#......##.WWWW.##......##.WWWW.##......#WWWW...##......##...",
"...##......##...WWWW#......##.WWWW.##......##.WWWW.##......#WWWW...##......##...",
"################WWWW##########WWWW############WWWW##########WWWW################",
"#......##......#WWWW...##.....WWWW.....##.....WWWW.....##...WWWW#......##......#",
"#......##......##WWWW..##....WWWW......##......WWWW....##..WWWW##......##......#",
"#################WWWW########WWWW##############WWWW########WWWW#################",
"...##......##....WWWW......##WWWW..##......##..WWWW##......WWWW....##......##...",
"...##......##....WWWW......##WWWW..##......##..WWWW##......WWWW....##......##...",
"##################WWWW######WWWW################WWWW######WWWW##################",
"#......##......##.WWWW.##...WWWW#......##......#WWWW...##.WWWW.##......##......#",
"#......##......##.WWWW.##...WWWW#......##......#WWWW...##.WWWW.##......##......#",
"##################WWWW######WWWW################WWWW######WWWW##################",
"...##......##......WWWW....WWWW....##......##....WWWW....WWWW......##......##...",
"...##......##......WWWW....WWWW....##......##....WWWW....WWWW......##......##...",
"###################WWWW####WWWW##################WWWW####WWWW###################",
"#......##......##..WWWW##..WWWW##......##......##WWWW..##WWWW..##......##......#",
"#......##......##...WWWW#.WWWW.##......##......##.WWWW.#WWWW...##......##......#",
"####################WWWW##WWWW####################WWWW##WWWW####################",
"...##......##......#WWWW..WWWW.....##......##.....WWWW..WWWW#......##......##...",
"...##......##......#WWWW..WWWW.....##......##.....WWWW..WWWW#......##......##...",
"#####################WWWWWWWW######################WWWWWWWW#####################",
"#......##......##....WWWWWWWW..##......##......##..WWWWWWWW....##......##......#",
"#......##......##....WWWWWWWW..##......##......##..WWWWWWWW....##......##......#",
"#####################WWWWWWWW######################WWWWWWWW#####################",
"...##......##......##......##......##......##......##......##......##......##...",
"...##......##......##......##......##......##......##......##......##......##...",
"################################################################################",
"#......##......##......##......##......##......##......##......##......##......#",
"#......##......##......##......##......##......##......##......##......##......#",
"################################################################################",
"...##......##......##......##......##......##......##......##......##......##...",
"...##......##......##......##......##......##......##......##......##......##...",
"################################################################################",
"#......##......##......##......##......##......##......##......##......##......#",
"#......##......##......##......##......##......##......##......##......##......#",
"################################################################################",
"...##......##......##......##......##......##......##......##......##......##...",
"...##......##......##......##......##......##......##......##......##......##...",
"################################################################################",
"#......##......##......##......##......##......##......##......##......##......#",
"#......##......##......##......##......##......##......##......##......##......#",
"################################################################################",
};